<svg width="16" height="18" viewBox="0 0 16 18" fill="none" xmlns="http://www.w3.org/2000/svg">
<g filter="url(#filter0_d_195_581)">
<path d="M7.29999 5.99999L10.8 2.49999C11.2 2.09999 11.2 1.49999 10.8 1.09999C10.4 0.699988 9.79999 0.699988 9.39999 1.09999L5.19999 5.29999C4.79999 5.69999 4.79999 6.29999 5.19999 6.69999L9.39999 10.9C9.59999 11.1 9.79999 11.2 10.1 11.2C10.4 11.2 10.6 11.1 10.8 10.9C11.2 10.5 11.2 9.89999 10.8 9.49999L7.29999 5.99999Z" fill="white"/>
<path d="M6.94644 5.64643L6.59289 5.99999L6.94644 6.35354L10.4464 9.85354C10.6512 10.0583 10.6512 10.3417 10.4464 10.5464C10.376 10.6169 10.3253 10.6499 10.2844 10.6681C10.2457 10.6853 10.1917 10.7 10.1 10.7C10.0083 10.7 9.95431 10.6853 9.91556 10.6681C9.87465 10.6499 9.82403 10.6169 9.75355 10.5464L5.55355 6.34643C5.34881 6.1417 5.34881 5.85828 5.55355 5.65354L9.75355 1.45354C9.95829 1.2488 10.2417 1.2488 10.4464 1.45354C10.6512 1.65828 10.6512 1.9417 10.4464 2.14643L6.94644 5.64643Z" stroke="white"/>
</g>
<defs>
<filter id="filter0_d_195_581" x="0.899994" y="0.799988" width="14.2" height="18.4" filterUnits="userSpaceOnUse" color-interpolation-filters="sRGB">
<feFlood flood-opacity="0" result="BackgroundImageFix"/>
<feColorMatrix in="SourceAlpha" type="matrix" values="0 0 0 0 0 0 0 0 0 0 0 0 0 0 0 0 0 0 127 0" result="hardAlpha"/>
<feOffset dy="4"/>
<feGaussianBlur stdDeviation="2"/>
<feComposite in2="hardAlpha" operator="out"/>
<feColorMatrix type="matrix" values="0 0 0 0 0 0 0 0 0 0 0 0 0 0 0 0 0 0 0.25 0"/>
<feBlend mode="normal" in2="BackgroundImageFix" result="effect1_dropShadow_195_581"/>
<feBlend mode="normal" in="SourceGraphic" in2="effect1_dropShadow_195_581" result="shape"/>
</filter>
</defs>
</svg>
